<svg width="18" height="19" viewBox="0 0 18 19" fill="none" xmlns="http://www.w3.org/2000/svg">
<path d="M12.5547 9.38281L17.2266 14.0547C17.4661 14.2943 17.6484 14.5677 17.7734 14.875C17.9036 15.1823 17.9688 15.5026 17.9688 15.8359C17.9688 16.1849 17.901 16.513 17.7656 16.8203C17.6354 17.1276 17.4557 17.3958 17.2266 17.625C16.9974 17.8542 16.7292 18.0339 16.4219 18.1641C16.1146 18.2995 15.7865 18.3672 15.4375 18.3672C15.099 18.3672 14.776 18.3021 14.4688 18.1719C14.1667 18.0469 13.8958 17.8646 13.6562 17.625L8.98438 12.9531V12.0938C8.54167 12.3125 8.08594 12.4766 7.61719 12.5859C7.14844 12.6953 6.66927 12.75 6.17969 12.75C5.61198 12.75 5.0651 12.6771 4.53906 12.5312C4.01302 12.3854 3.52083 12.1797 3.0625 11.9141C2.60417 11.6432 2.1875 11.3203 1.8125 10.9453C1.4375 10.5651 1.11458 10.1484 0.84375 9.69531C0.578125 9.23698 0.369792 8.74479 0.21875 8.21875C0.0729167 7.69271 0 7.14583 0 6.57812C0 6.01042 0.0729167 5.46354 0.21875 4.9375C0.369792 4.41146 0.578125 3.91927 0.84375 3.46094C1.11458 3.0026 1.4375 2.58594 1.8125 2.21094C2.1875 1.83594 2.60417 1.51562 3.0625 1.25C3.52083 0.979167 4.01302 0.770833 4.53906 0.625C5.0651 0.473958 5.61198 0.398438 6.17969 0.398438C6.7474 0.398438 7.29167 0.473958 7.8125 0.625C8.33854 0.770833 8.83073 0.979167 9.28906 1.25C9.7474 1.51562 10.1641 1.83854 10.5391 2.21875C10.9141 2.59375 11.2344 3.01042 11.5 3.46875C11.7708 3.92188 11.9792 4.41146 12.125 4.9375C12.276 5.46354 12.3516 6.01042 12.3516 6.57812C12.3516 7.06771 12.2943 7.54688 12.1797 8.01562C12.0703 8.48438 11.9062 8.9375 11.6875 9.375L12.5547 9.38281ZM6.17969 11.6328C6.64323 11.6328 7.08854 11.5729 7.51562 11.4531C7.94792 11.3333 8.34896 11.1641 8.71875 10.9453C9.09375 10.7214 9.4349 10.4557 9.74219 10.1484C10.0547 9.84115 10.3203 9.5 10.5391 9.125C10.7578 8.75 10.9271 8.34896 11.0469 7.92188C11.1667 7.48958 11.2266 7.04167 11.2266 6.57812C11.2266 6.11458 11.1667 5.66927 11.0469 5.24219C10.9271 4.8099 10.7578 4.40625 10.5391 4.03125C10.3203 3.65625 10.0573 3.3151 9.75 3.00781C9.44271 2.70052 9.10156 2.4375 8.72656 2.21875C8.35156 1.99479 7.94792 1.82292 7.51562 1.70312C7.08854 1.58333 6.64323 1.52344 6.17969 1.52344C5.71615 1.52344 5.26823 1.58333 4.83594 1.70312C4.40365 1.82292 4 1.99479 3.625 2.21875C3.25521 2.4375 2.91667 2.70052 2.60938 3.00781C2.30208 3.3151 2.03646 3.65625 1.8125 4.03125C1.59375 4.40104 1.42448 4.80208 1.30469 5.23438C1.1849 5.66667 1.125 6.11458 1.125 6.57812C1.125 7.27604 1.25781 7.93229 1.52344 8.54688C1.78906 9.15625 2.15104 9.6901 2.60938 10.1484C3.06771 10.6068 3.60156 10.9688 4.21094 11.2344C4.82552 11.5 5.48177 11.6328 6.17969 11.6328ZM14.4453 16.8359L15.4375 15.8438L11.1016 11.5L10.1094 12.4922L14.4453 16.8359ZM16 15.2812L16.4297 14.8516L12.0938 10.5078L11.6641 10.9375L16 15.2812ZM10.6641 9.94531C10.5026 10.1589 10.3281 10.3594 10.1406 10.5469C9.95833 10.7344 9.76042 10.9062 9.54688 11.0625L10.1094 11.6328L11.2266 10.5078L10.6641 9.94531Z" fill="#9CA3AF"/>
</svg>
