<svg width="45" height="45" viewBox="0 0 45 45" fill="none" xmlns="http://www.w3.org/2000/svg">
<rect width="45" height="45" rx="22.5" fill="#F97316"/>
<path d="M29.7188 14C30.0208 14 30.3073 14.0599 30.5781 14.1797C30.8542 14.2995 31.0938 14.4609 31.2969 14.6641C31.5052 14.8672 31.6693 15.1068 31.7891 15.3828C31.9089 15.6536 31.9688 15.9401 31.9688 16.2422C31.9688 16.5391 31.9115 16.8255 31.7969 17.1016C31.6823 17.3724 31.5234 17.612 31.3203 17.8203C31.1224 18.0234 30.8906 18.1875 30.625 18.3125C30.3646 18.4375 30.0859 18.5 29.7891 18.5C29.7526 18.5 29.7161 18.5 29.6797 18.5C29.6484 18.4948 29.6146 18.4896 29.5781 18.4844C29.5208 18.4844 29.4635 18.5365 29.4062 18.6406C29.3542 18.7396 29.3047 18.8568 29.2578 18.9922C29.2109 19.1224 29.1693 19.25 29.1328 19.375C29.1016 19.4948 29.0807 19.5729 29.0703 19.6094L27.5781 24.5859L28.3594 26.1641C28.4792 26.4036 28.5391 26.6536 28.5391 26.9141C28.5391 27.0911 28.5104 27.2656 28.4531 27.4375C28.3958 27.6042 28.3151 27.7604 28.2109 27.9062C28.112 28.0469 27.9922 28.1693 27.8516 28.2734C27.7109 28.3828 27.5547 28.4635 27.3828 28.5156C27.4453 28.7292 27.4766 28.9453 27.4766 29.1641C27.4766 29.4714 27.4167 29.7604 27.2969 30.0312C27.1771 30.3021 27.013 30.5391 26.8047 30.7422C26.6016 30.9453 26.362 31.1068 26.0859 31.2266C25.8151 31.3464 25.5286 31.4062 25.2266 31.4062C24.9193 31.4062 24.6276 31.3464 24.3516 31.2266C24.0807 31.112 23.8438 30.9531 23.6406 30.75C23.4375 30.5469 23.276 30.3073 23.1562 30.0312C23.0417 29.7604 22.9844 29.4714 22.9844 29.1641C22.9844 28.9714 23.0078 28.7839 23.0547 28.6016H21.2266C21.2734 28.7839 21.2969 28.9714 21.2969 29.1641C21.2969 29.4714 21.237 29.7604 21.1172 30.0312C21.0026 30.3073 20.8438 30.5469 20.6406 30.75C20.4375 30.9531 20.1979 31.112 19.9219 31.2266C19.651 31.3464 19.362 31.4062 19.0547 31.4062C18.7474 31.4062 18.4583 31.3464 18.1875 31.2266C17.9167 31.1068 17.6771 30.9453 17.4688 30.7422C17.2656 30.5391 17.1042 30.3021 16.9844 30.0312C16.8646 29.7604 16.8047 29.4714 16.8047 29.1641C16.8047 28.9714 16.8281 28.7839 16.875 28.6016H14.5625V27.4766C14.5625 27.2578 14.5911 27.0469 14.6484 26.8438C14.7109 26.6354 14.7995 26.4427 14.9141 26.2656C15.0286 26.0885 15.1667 25.9297 15.3281 25.7891C15.4896 25.6484 15.6693 25.5312 15.8672 25.4375C15.8411 25.3958 15.8203 25.3516 15.8047 25.3047C15.7891 25.2526 15.7734 25.2031 15.7578 25.1562L14.0703 19.5391C14.0234 19.3828 14 19.2214 14 19.0547C14 18.8255 14.0443 18.6094 14.1328 18.4062C14.2214 18.1979 14.3411 18.0182 14.4922 17.8672C14.6484 17.7109 14.8281 17.5885 15.0312 17.5C15.2396 17.4115 15.4583 17.3672 15.6875 17.3672H26.2969C26.6146 16.7214 27.0312 16.1562 27.5469 15.6719C27.6146 15.4323 27.7188 15.2109 27.8594 15.0078C28 14.7995 28.1641 14.6224 28.3516 14.4766C28.5443 14.3255 28.7578 14.2083 28.9922 14.125C29.2266 14.0417 29.4688 14 29.7188 14ZM26.375 24.6875L28.0234 19.1797C28.1068 18.8984 28.2005 18.6406 28.3047 18.4062C28.4141 18.1719 28.5417 17.9557 28.6875 17.7578C28.8385 17.5547 29.013 17.3724 29.2109 17.2109C29.4089 17.0495 29.6406 16.9036 29.9062 16.7734C30.026 16.7161 30.1172 16.6484 30.1797 16.5703C30.2474 16.4922 30.2812 16.3828 30.2812 16.2422C30.2812 16.0911 30.224 15.9609 30.1094 15.8516C30 15.7422 29.8698 15.6875 29.7188 15.6875C29.6406 15.6875 29.5495 15.7083 29.4453 15.75C29.3464 15.7917 29.2422 15.8411 29.1328 15.8984C29.0286 15.9557 28.9297 16.0182 28.8359 16.0859C28.7422 16.1484 28.6641 16.2031 28.6016 16.25C28.2266 16.5312 27.9115 16.8646 27.6562 17.25C27.401 17.6354 27.2005 18.0495 27.0547 18.4922H15.6875C15.5365 18.4922 15.4036 18.5469 15.2891 18.6562C15.1797 18.7656 15.125 18.8958 15.125 19.0469C15.125 19.1146 15.151 19.2552 15.2031 19.4688C15.2604 19.6771 15.3307 19.9245 15.4141 20.2109C15.4974 20.4974 15.5885 20.8073 15.6875 21.1406C15.7917 21.4688 15.8906 21.7865 15.9844 22.0938C16.0781 22.3958 16.1615 22.6693 16.2344 22.9141C16.3125 23.1536 16.3698 23.3281 16.4062 23.4375C16.4792 23.6719 16.5443 23.9062 16.6016 24.1406C16.6641 24.375 16.7396 24.6042 16.8281 24.8281C16.8802 24.9531 16.9479 25.0521 17.0312 25.125C17.1146 25.1927 17.2266 25.2266 17.3672 25.2266H25.3828L25.9453 26.3516H16.8047C16.6484 26.3516 16.5026 26.3828 16.3672 26.4453C16.2318 26.5026 16.112 26.5833 16.0078 26.6875C15.9089 26.7865 15.8307 26.9036 15.7734 27.0391C15.7161 27.1745 15.6875 27.3203 15.6875 27.4766H26.8516C27.0078 27.4766 27.1406 27.4219 27.25 27.3125C27.3646 27.2031 27.4219 27.0703 27.4219 26.9141C27.4219 26.8672 27.3984 26.7891 27.3516 26.6797C27.3099 26.5703 27.2552 26.4453 27.1875 26.3047C27.1198 26.1589 27.0443 26.0052 26.9609 25.8438C26.8828 25.6823 26.8047 25.526 26.7266 25.375C26.6484 25.224 26.5781 25.0885 26.5156 24.9688C26.4531 24.8438 26.4062 24.75 26.375 24.6875ZM18.4922 21.3125V19.6172H20.1797V21.3125H18.4922ZM22.9844 21.3125V19.6172H24.6719V21.3125H22.9844ZM20.7344 21.3125V19.6172H22.4219V21.3125H20.7344ZM22.9844 24.1094V22.4219H24.6719V24.1094H22.9844ZM20.7344 24.1094V22.4219H22.4219V24.1094H20.7344ZM18.4922 24.1094V22.4219H20.1797V24.1094H18.4922ZM25.7891 29.1641V28.0391H24.0781C24.1979 28.263 24.3047 28.4922 24.3984 28.7266C24.4974 28.9609 24.6094 29.1901 24.7344 29.4141C24.7865 29.5026 24.8542 29.5755 24.9375 29.6328C25.026 29.6901 25.1224 29.7188 25.2266 29.7188C25.3776 29.7188 25.5078 29.6641 25.6172 29.5547C25.7318 29.4453 25.7891 29.3151 25.7891 29.1641ZM19.6172 29.1641V28.0391H17.9062L18.5625 29.4141C18.6042 29.5078 18.6693 29.5807 18.7578 29.6328C18.8516 29.6901 18.9505 29.7188 19.0547 29.7188C19.2057 29.7188 19.3359 29.6641 19.4453 29.5547C19.5599 29.4453 19.6172 29.3151 19.6172 29.1641ZM25.2266 21.3125V19.6172H26.7188L26.2109 21.3125H25.2266ZM16.9453 21.3125L16.4375 19.6172H17.9297V21.3125H16.9453ZM25.2266 24.1094V22.4219H25.8828L25.375 24.1094H25.2266ZM17.7891 24.1094L17.2812 22.4219H17.9297V24.1094H17.7891Z" fill="white"/>
</svg>
