<svg width="92" height="33" viewBox="0 0 92 33" fill="none" xmlns="http://www.w3.org/2000/svg">
<path d="M40.8601 27.0098C40.7758 28.5685 40.6914 30.1271 40.5949 31.9107C37.8497 31.9107 35.2495 31.9107 32.4368 31.6727C32.2238 21.2641 32.2232 11.0936 32.2227 0.923149C35.3007 0.693201 38.3788 0.463254 41.7089 0.214466C41.7089 1.43616 41.7089 2.38546 41.7182 3.73241C41.5464 7.34755 41.3653 10.5651 41.1901 13.678C42.9014 14.2162 43.6153 13.9617 43.6044 12.3942C43.595 11.0365 43.8194 9.67674 43.9471 8.3185C44.2859 4.7149 46.1894 2.29185 49.5111 0.943499C50.2639 0.637912 51.0193 0.338738 51.7735 0.0366156C53.5912 0.0278289 55.4099 -0.0237673 57.2263 0.0198623C60.2796 0.0931861 62.8235 1.21212 64.756 4.07606C65.4095 6.77966 65.8963 9.223 66.383 11.6663C66.3631 15.3785 66.4019 19.0921 66.3102 22.8025C66.1469 29.4127 62.9787 32.6136 56.3756 32.9487C55.4687 32.9948 54.5597 32.9968 53.2727 33C47.772 32.2547 45.2891 29.9895 44.3219 25.0424C44.0761 23.7853 44.1925 22.4458 43.8572 21.2225C43.6977 20.6404 42.8657 19.8659 42.3443 19.8705C41.8584 19.8747 41.0202 20.7605 40.9649 21.3205C40.7789 23.202 40.8731 25.1112 40.8601 27.0098ZM53.4814 11.817C52.8931 12.6548 51.8518 13.4644 51.7978 14.3354C51.6017 17.4991 51.6364 20.6888 51.809 23.8565C51.8585 24.7655 52.6668 25.6331 53.3835 26.7616C57.0281 27.2014 58.0644 26.3317 58.126 22.7326C58.1711 20.0992 58.2328 17.4645 58.1939 14.8317C58.1447 11.4924 57.0917 10.7919 53.4814 11.817Z" fill="#FFCB02"/>
<path d="M68.6834 0.648804C76.3902 0.648804 84.097 0.648804 91.9998 0.648804C91.9998 3.97729 91.9998 7.43954 91.9998 11.1804C90.0865 11.2741 88.0791 11.3724 85.8682 11.4807C85.8682 18.2291 85.8682 24.9297 85.8682 31.9108C82.511 31.9108 79.3547 31.9108 75.9939 31.6708C75.7895 24.8175 75.7895 18.2042 75.7895 11.3327C74.397 11.508 73.2985 11.6463 72.2 11.7846C71.1251 11.7675 70.0502 11.7505 68.7878 11.4573C68.628 7.67039 68.6557 4.15959 68.6834 0.648804Z" fill="#FFCB02"/>
<path d="M5.49646 24.7794C5.8045 24.1978 6.11253 23.6162 6.50893 22.8677C7.05495 23.2004 7.59402 23.5288 8.37718 24.0252C10.0295 25.3031 11.4113 25.3145 12.6126 23.9346C13.8102 22.5587 14.4269 21.1477 13.4316 19.2168C10.3228 13.1853 7.37316 7.07154 4.36182 0.989677C6.94799 0.792715 9.55268 0.724282 12.114 0.354409C13.873 0.100389 14.5159 0.834702 14.9173 2.3496C15.2426 3.57741 15.789 4.74651 16.3335 6.24972C17.1678 8.60132 17.9061 10.6448 18.8172 13.1671C20.0843 8.63175 21.1593 4.78388 22.2344 0.936001C25.3042 0.743979 28.374 0.551956 31.4985 0.59699C30.5243 3.42246 29.4953 6.01088 28.4663 8.5993C26.4768 13.2436 24.6241 17.9536 22.4413 22.505C21.3154 24.8526 19.8387 27.1323 18.0958 29.0572C15.8945 31.4882 12.8463 32.2187 9.25238 31.7154C4.88686 30.0232 4.46641 29.1874 5.49646 24.7794Z" fill="#FFCB02"/>
<path d="M28.4849 8.81941C29.4949 6.01094 30.5237 3.42253 31.6186 0.690702C31.8243 0.602809 31.964 0.658322 32.1628 0.818474C32.2226 11.0936 32.2231 21.2641 32.2291 31.6434C31.115 31.8522 29.9955 31.8522 28.5036 31.8522C28.5036 24.2094 28.5036 16.6244 28.4849 8.81941Z" fill="#FF3835"/>
<path d="M4.19689 0.909558C7.37276 7.07165 10.3224 13.1854 13.4312 19.2169C14.4265 21.1479 13.8098 22.5589 12.6122 23.9347C11.4109 25.3147 10.0291 25.3032 8.52889 24.1211C10.0597 22.2558 10.0573 20.5169 8.89095 18.3265C5.86294 12.6397 3.10396 6.80937 0 0.557739C1.61333 0.666399 2.82285 0.747863 4.19689 0.909558Z" fill="#FF3835"/>
<path d="M72.2163 12.0047C73.2985 11.6462 74.3968 11.5079 75.7891 11.3326C75.7891 18.2041 75.7891 24.8174 75.7743 31.6392C74.6405 31.8478 73.5215 31.8478 72.2324 31.8478C72.2324 25.2775 72.2324 18.7512 72.2163 12.0047Z" fill="#FF3835"/>
<path d="M40.9937 27.1246C40.8731 25.1112 40.7788 23.202 40.9648 21.3205C41.0202 20.7605 41.8584 19.8747 42.3443 19.8704C42.8657 19.8659 43.6977 20.6404 43.8572 21.2225C44.1924 22.4458 44.0761 23.7852 44.3219 25.0424C45.2891 29.9895 47.772 32.2547 53.0374 32.9874C50.7334 32.7227 48.2041 32.7463 45.861 32.0967C43.5351 31.4519 42.04 29.5147 40.9937 27.1246Z" fill="#FF3835"/>
<path d="M51.5707 0.00323057C51.0196 0.338644 50.2642 0.637818 49.5114 0.943405C46.1897 2.29175 44.2862 4.71481 43.9474 8.31841C43.8197 9.67664 43.5953 11.0364 43.6047 12.3941C43.6156 13.9616 42.9017 14.2161 41.1904 13.6779C41.3656 10.565 41.5467 7.34746 41.745 3.94419C44.3811 1.01414 47.6542 -0.067435 51.5707 0.00323057Z" fill="#FF3835"/>
<path d="M22.1148 0.785403C21.1582 4.78397 20.0834 8.63184 18.8165 13.1672C17.9055 10.6449 17.1674 8.6014 16.3823 6.43593C16.6098 5.5332 16.9121 4.76095 17.1539 3.97014C18.2329 0.44162 18.2267 0.439707 22.1148 0.785403Z" fill="#FF3835"/>
<path d="M5.33893 24.7003C4.46613 29.1874 4.88658 30.0232 9.03861 31.6643C6.58701 32.1852 4.16586 31.9249 2.08953 30.1956C0.790386 29.1136 -0.0633844 27.934 1.03933 26.1253C1.61637 25.1788 1.85805 24.0274 2.32753 22.7629C3.34307 23.4241 4.26238 24.0226 5.33893 24.7003Z" fill="#FF3835"/>
<path d="M68.4745 0.638992C68.6551 4.1595 68.6274 7.6703 68.6042 11.3739C67.9895 11.5991 67.3704 11.6315 66.5671 11.6651C65.8962 9.22295 65.4095 6.77961 64.8706 4.22519C64.8898 3.08409 64.9612 2.05406 65.06 0.629272C66.1242 0.629272 67.1952 0.629273 68.4745 0.638992Z" fill="#FF3835"/>
</svg>
